<?xml version="1.0"?>
<svg style="enable-background:new 0 0 91 91;" version="1.1" viewBox="0 0 91 91" xml:space="preserve" xmlns="http://www.w3.org/2000/svg" xmlns:xlink="http://www.w3.org/1999/xlink">
	<g>
		<g>
			<circle xmlns="http://www.w3.org/2000/svg" cx="50%" cy="50%" r="45" fill="#ffdd9a" />
			<g transform="translate(0, 4.5)">
				<path fill="black" d="M27.3,27c2,2,4,4,5.8,6.1c2.8,3.2,7.9-1.9,4.6-4.6c-3-2.5-5.7-5.3-8.6-8c-1.4-1.4-3.6-1-4.7,0.6     c-2.3,3.6-5,6.6-8.2,9.3c-1.5,1.3,0.1,4.3,2.1,3.6C21.9,32.5,24.8,29.9,27.3,27z" />
				<path fill="black" d="M73.4,28.4c-3-2.5-5.7-5.3-8.6-8c-1.4-1.4-3.6-1-4.7,0.6c-2.3,3.6-5,6.6-8.2,9.3c-1.5,1.3,0.1,4.3,2.1,3.6     c3.6-1.4,6.5-4,9-6.9c2,2,4,4,5.8,6.1C71.5,36.3,76.6,31.1,73.4,28.4z" />
				<path fill="black" d="M63.3,51.3C52.2,49.8,40,48.1,29,51.2c-0.6,0-1.2,0.2-1.7,0.5c0,0,0,0,0,0c-0.2,0.1-0.4,0.2-0.5,0.4     c-1.3,1.1-1.8,3.1-0.3,5c2.8,3.6,5.8,6.9,9.3,9.7c2.6,2.1,6.2,5.8,9.8,4.9c3.6-0.9,7.4-4.8,10.1-7.2c3.4-3,6.3-6.4,9.1-10     C65.4,53.5,64.6,51.5,63.3,51.3z M45.4,65.5c-1.6,0.8-2.1-0.2-3.5-1.3c-1.2-1-2.4-2.1-3.5-3.2c-2.3-2.3-4.3-4.7-6.1-7.4     c4.1-0.1,8.1-0.2,12.2,0c4.7,0.2,9.3,0.7,13.9,1.3C54.6,59,50.2,63,45.4,65.5z" />
			</g>
		</g>
	</g>
</svg>
