<svg width="40" height="40" xmlns="http://www.w3.org/2000/svg" xmlns:undefined="http://www.inkscape.org/namespaces/inkscape" version="1.1">
	<g>
		<ellipse stroke-width="0" opacity="0.33" stroke="#000" ry="19.87123" rx="19.91415" id="svg_3" cy="20" cx="20" fill="#67a8b2" />
		<g id="g830">
			<path stroke-width="1px" fill="#ffffff" id="path3403" d="m18.44814,14.1401l-0.39454,1.8086l-1.12112,-0.01943l-0.34763,1.02333l-1.90625,-0.20703l0.88315,-2.63355l2.88639,0.02808z" />
			<path stroke-width="1px" fill="#ffffff" id="path3570" d="m22.03017,14.16745l0.39843,1.84375l1.04284,0.0122l0.3556,1.15577l1.90625,-0.19922l-0.87507,-2.78342l-2.82805,-0.02908z" />
			<path stroke-width="0.85332px" fill-opacity="0.99608" fill="#00b0f5" id="path133625" d="m3.03156,25.33397l3.18784,-9.46181l3.80662,2.36856l-1.97793,5.93565l12.13523,8.98644l12.29661,-8.76434l-1.89815,-6.15775l3.38366,-1.9456l3.003,9.34737l-17.08051,12.17403l-16.85637,-12.48255z" />
			<path stroke-width="0.85332px" fill-opacity="0.94902" fill="#d74aff" id="path137885" d="m11.12571,15.28002l1.71899,-5.42191l5.80966,0.00802l1.09969,-4.31417c0,0 -10.05978,-0.10669 -10.05978,-0.10669l-3.13697,9.37547l4.56841,0.45928z" />
			<path stroke-width="0.85332px" fill-opacity="0.94902" fill="#d74aff" id="path139940" d="m21.77368,9.94085l6.17073,0.05452l1.7258,5.47538l4.00659,-0.28l-3.00839,-9.55478l-9.88559,-0.08299l0.99086,4.38787z" />
			<path fill-opacity="0.99608" stroke-width="1px" fill="#ff7d00" id="path3968" d="m13.52626,20.15573l1.63672,0.94531l-0.34067,1.01806l5.2348,3.91966l5.34546,-3.76735l-0.28256,-0.91646l1.69141,-0.98438l0.83919,2.69355l-7.57068,5.39595l-7.47132,-5.5327l0.91765,-2.77164z" />
		</g>
	</g>
</svg>
