<?xml version="1.0" encoding="UTF-8" standalone="no"?>
<svg
   enable-background="new 0 0 500 500"
   height="500px"
   id="Layer_1"
   version="1.1"
   viewBox="0 0 500 500"
   width="500px"
   xml:space="preserve"
   sodipodi:docname="volume.svg"
   inkscape:version="1.1.1 (3bf5ae0d25, 2021-09-20)"
   xmlns:inkscape="http://www.inkscape.org/namespaces/inkscape"
   xmlns:sodipodi="http://sodipodi.sourceforge.net/DTD/sodipodi-0.dtd"
   xmlns="http://www.w3.org/2000/svg"
   xmlns:svg="http://www.w3.org/2000/svg"><defs
   id="defs7" /><sodipodi:namedview
   id="namedview5"
   pagecolor="#505050"
   bordercolor="#eeeeee"
   borderopacity="1"
   inkscape:pageshadow="0"
   inkscape:pageopacity="0"
   inkscape:pagecheckerboard="0"
   showgrid="false"
   inkscape:zoom="1.4142136"
   inkscape:cx="256.32621"
   inkscape:cy="244.30539"
   inkscape:window-width="1920"
   inkscape:window-height="1017"
   inkscape:window-x="-8"
   inkscape:window-y="-8"
   inkscape:window-maximized="1"
   inkscape:current-layer="Layer_1" />
	<path
   fill="#ffffff"
   clip-rule="evenodd"
   d="m 133.46204,292.04159 c 137.46964,-131.04928 -18.65733,17.78597 137.46964,-131.04928 12.20251,-11.6326 13.28918,-30.03756 13.70545,-44.16042 L 286.341,59.025 c 0.29174,-9.897702 -8.181,-17.991 -18.169,-17.991 -5.093,0 -9.724,2.09 -12.998,5.452 L 139.971,159.146 H 68.29 c -20.077,0 -36.34,16.264 -36.34,36.343 v 109.025 c 0,20.078 16.264,36.34 36.34,36.34 h 7.546806 c 5.225236,0 12.191319,-5.50043 57.625234,-48.81241 z M 388.553,138.433 c -8.723,8.629 -8.723,22.713 0,31.437 21.623,21.714 35.064,51.607 35.064,84.675 0,33.077 -13.529,62.96 -35.151,84.679 -8.731,8.723 -8.731,22.804 0,31.435 8.623,8.724 22.712,8.724 31.435,0 29.707,-29.712 48.15,-70.774 48.15,-116.113 0,-45.245 -18.26,-86.225 -47.876,-115.93 l -0.188,-0.182 c -8.718,-8.726 -22.711,-8.726 -31.434,-0.001 z m -18.81,181.979 c 16.804,-16.892 27.166,-40.158 27.166,-65.868 0,-25.713 -10.362,-48.969 -27.166,-65.871 -8.72,-8.721 -22.804,-8.721 -31.435,0 -8.724,8.634 -8.724,22.713 0,31.437 8.723,8.815 14.168,20.988 14.168,34.434 0,13.449 -5.445,25.623 -14.168,34.435 -8.724,8.723 -8.724,22.715 0,31.434 8.631,8.635 22.715,8.722 31.435,-0.001 z M 260.69238,570.9374 v -381.948"
   fill-rule="evenodd"
   id="path2"
   sodipodi:nodetypes="sssssccsssssscccscccsccccscccscccc"
   style="fill:#ffffff" /><path
   fill="#ffffff"
   clip-rule="evenodd"
   d="M 139.884,340.854 255.36,453.69599 c 3.271,3.275 7.814,5.27 12.812,5.27 9.988,0 18.169,-8.081 18.169,-17.99299 l 0,-191.9663 c -47.3453,52.97988 -54.56266,39.02728 -146.457,91.8473 z M 388.553,138.43299 c -8.723,8.629 -8.723,22.713 0,31.43701 21.623,21.71399 35.064,51.60699 35.064,84.675 0,33.077 -13.529,62.95999 -35.151,84.679 -8.731,8.723 -8.731,22.80399 0,31.435 8.623,8.72399 22.712,8.72399 31.435,0 29.707,-29.712 48.15,-70.774 48.15,-116.113 0,-45.245 -18.26,-86.225 -47.876,-115.93001 l -0.188,-0.182 c -8.718,-8.726 -22.711,-8.726 -31.434,-0.001 z m -18.81,181.979 C 386.547,303.52 396.909,280.254 396.909,254.544 c 0,-25.713 -10.362,-48.969 -27.166,-65.871 -8.72,-8.721 -22.804,-8.721 -31.435,0 -8.724,8.634 -8.724,22.713 0,31.437 8.723,8.815 14.168,20.988 14.168,34.434 0,13.449 -5.445,25.623 -14.168,34.435 -8.724,8.723 -8.724,22.715 0,31.434 8.631,8.635 22.715,8.722 31.435,-0.001 z"
   fill-rule="evenodd"
   id="path2-8"
   sodipodi:nodetypes="ccsscccccscccsccccscccsccc"
   style="fill:#ffffff" />
<path
   fill="#f1f1f1c4"
   d="m 466.1384,74.204734 c 8.00693,-7.855967 8.00693,-20.590478 0,-28.446445 -14.68562,-14.404284 -32.38629,5.693313 -32.91957,6.216372 L 35.969012,441.43347 c -5.026541,7.76281 -4.634581,17.76555 0.984512,25.12701 8.009402,7.85355 20.992625,7.85355 29.00203,0 400.182846,-392.355746 0,0 400.182846,-392.355746 z"
   id="path1270"
   sodipodi:nodetypes="ccccccc"
   style="fill:#ffffff;stroke-width:20.3132" /></svg>
